<?xml version="1.0" encoding="UTF-8"?>
<!DOCTYPE svg PUBLIC "-//W3C//DTD SVG 1.1//EN" "http://www.w3.org/Graphics/SVG/1.1/DTD/svg11.dtd">
<svg version="1.1" xmlns="http://www.w3.org/2000/svg" xmlns:xlink="http://www.w3.org/1999/xlink" x="0" y="0" width="180" height="180" viewBox="0, 0, 180, 180">
  <g id="Background">
    <rect x="0" y="0" width="180" height="180" fill="#000000" fill-opacity="0"/>
  </g>
  <g id="Layer_1">
    <g>
      <path d="M61.161,134.194 C66.638,138.007 72.944,140.528 79.462,141.861 L79.462,180 C63.105,178.235 46.804,171.812 34.059,161.296 L61.161,134.194 z" fill="#0253A4"/>
      <path d="M119.659,134.371 L146.415,161.127 C133.515,171.605 117.344,178.324 100.808,180 L100.808,142.026 C107.533,140.814 113.994,138.194 119.659,134.371 z" fill="#0253A4"/>
      <path d="M38.549,100.84 C39.781,107.374 42.429,113.629 46.147,119.131 L19,146.278 C8.557,133.438 1.667,117.337 -0.003,100.84 L38.549,100.84 z" fill="#0253A4"/>
      <path d="M180,100.941 C178.203,117.277 171.653,133.466 161.163,146.179 L134.483,119.499 C138.382,113.953 140.954,107.564 142.309,100.941 L180,100.941 z" fill="#0253A4"/>
      <path d="M161.217,33.922 L162.617,35.621 C172.12,48.591 178.337,63.657 179.962,79.697 L142.348,79.697 C141.135,72.861 138.398,66.362 134.521,60.621 L161.217,33.922 z" fill="#92E5F6"/>
      <path d="M18.908,33.824 L45.829,60.742 C41.806,66.428 39.4,73.023 38.015,79.799 L-0.003,79.799 C1.709,63.187 8.243,46.746 18.908,33.824 z" fill="#0253A4"/>
      <path d="M100.605,0 C117.198,1.74 133.524,8.401 146.415,19.038 L119.674,45.778 C113.985,41.755 107.384,39.358 100.605,37.974 L100.605,0 z" fill="#0253A4"/>
      <path d="M79.564,0.184 L79.564,38.116 C72.849,39.348 66.527,42.184 60.892,45.991 L33.958,19.057 C46.858,8.579 63.028,1.861 79.564,0.184 z" fill="#0253A4"/>
      <path d="M109.048,90 C109.048,100.278 100.716,108.609 90.439,108.609 C80.161,108.609 71.83,100.278 71.83,90 C71.83,79.722 80.161,71.391 90.439,71.391 C100.716,71.391 109.048,79.722 109.048,90 z" fill="#0253A4"/>
    </g>
  </g>
</svg>
